<svg fill="none" viewBox="0 0 44 8" xmlns="http://www.w3.org/2000/svg"><mask id="a" height="8" maskUnits="userSpaceOnUse" width="8" x="36" y="0"><path d="M40 0l.898 2.764h2.906l-2.35 1.708.897 2.764L40 5.528l-2.351 1.708.898-2.764-2.351-1.708h2.906z" fill="#c4c4c4"/></mask><g fill="#001737"><path d="M4 0l.898 2.764h2.906l-2.35 1.708.897 2.764L4 5.528 1.649 7.236l.898-2.764L.196 2.764h2.906zM13 0l.898 2.764h2.906l-2.35 1.708.897 2.764L13 5.528l-2.351 1.708.898-2.764-2.351-1.708h2.906zM22 0l.898 2.764h2.906l-2.35 1.708.897 2.764L22 5.528l-2.351 1.708.898-2.764-2.351-1.708h2.906zM31 0l.898 2.764h2.906l-2.35 1.708.897 2.764L31 5.528l-2.351 1.708.898-2.764-2.351-1.708h2.906z"/></g><g mask="url(#a)"><path d="M36 0h4v8h-4z" fill="#001737"/><path d="M40 0h4v8h-4z" fill="#c2e4ff"/></g></svg>