<svg viewBox="0 0 917 532" fill="none" xmlns="http://www.w3.org/2000/svg"><g clip-path="url(#clip0)"><rect width="917" height="532" rx="4" fill="#E8F5FF"/><g filter="url(#filter0_d)"><g clip-path="url(#clip1)"><path d="M0 4a4 4 0 014-4h909a4 4 0 014 4v52H0V4z" fill="#E8F5FF"/><circle cx="23.776" cy="28" r="8" fill="#FD6056"/><circle cx="47.776" cy="28" r="8" fill="#FEBE37"/><circle cx="71.776" cy="28" r="8" fill="#2CC947"/><rect x="104" y="12" width="32" height="32" rx="4" fill="#C2E4FF"/><path d="M124.208 32.837a1.21 1.21 0 11-1.756 1.668l-6.386-6.722a.1.1 0 010-.138l6.386-6.721a1.212 1.212 0 011.756 1.668l-4.868 5.122 4.868 5.123z" fill="#81A7FF"/><rect x="829" y="12" width="32" height="32" rx="4" fill="#C2E4FF"/><rect x="837.667" y="24.667" width="10.667" height="10.667" rx=".667" stroke="#81A7FF" stroke-width="1.333"/><mask id="a" fill="#fff"><path d="M841 22.133v.534h1.333v-1.334h9.334v9.334h-1.334V32h.534c.746 0 1.12 0 1.405-.145.251-.128.455-.332.583-.583.145-.285.145-.659.145-1.405v-7.734c0-.746 0-1.12-.145-1.405a1.335 1.335 0 00-.583-.583c-.285-.145-.659-.145-1.405-.145h-7.734c-.746 0-1.12 0-1.405.145a1.335 1.335 0 00-.583.583c-.145.285-.145.659-.145 1.405z"/></mask><path d="M841 22.667h-1.333V24H841v-1.333zM850.333 32H849v1.333h1.333V32zm0-1.333v-1.334H849v1.334h1.333zm1.334 0V32H853v-1.333h-1.333zm0-9.334H853V20h-1.333v1.333zm-9.334 0V20H841v1.333h1.333zm0 1.334V24h1.334v-1.333h-1.334zm10.522 8.605l-1.188-.605 1.188.605zm-.583.583l-.605-1.188.605 1.188zm0-11.71l.605-1.188-.605 1.188zm.583.583l-1.188.605 1.188-.605zm-11.71 0l1.188.605-1.188-.605zm.583-.583l.605 1.188-.605-1.188zm.605 2.522v-.534h-2.666v.534h2.666zm.8-1.334h7.734v-2.666h-7.734v2.666zm8.534.8v7.734h2.666v-7.734h-2.666zm-.8 8.534h-.534v2.666h.534v-2.666zm.8 1.333v-1.333H849V32h2.667zm-1.334 0h1.334v-2.667h-1.334V32zM853 30.667v-9.334h-2.667v9.334H853zM851.667 20h-9.334v2.667h9.334V20zM841 21.333v1.334h2.667v-1.334H841zm1.333 0H841V24h1.333v-2.667zm9.334 8.534c0 .395-.001.611-.014.767-.011.14-.025.11.014.033l2.376 1.21c.184-.362.243-.721.268-1.026.023-.29.022-.633.022-.984h-2.666zm-.8 3.466c.351 0 .695.001.984-.022a2.693 2.693 0 001.026-.268l-1.21-2.376c.076-.04.107-.026-.033-.014-.156.013-.372.014-.767.014v2.666zm.8-2.666l1.21 2.376c.502-.256.91-.664 1.166-1.166l-2.376-1.21zm-.8-9.334c.395 0 .611.001.767.014.14.011.109.025.033-.014l1.21-2.376a2.693 2.693 0 00-1.026-.268c-.289-.023-.633-.022-.984-.022v2.666zm3.466.8c0-.351.001-.695-.022-.984a2.704 2.704 0 00-.268-1.026l-2.376 1.21c-.039-.076-.025-.107-.014.033.013.156.014.372.014.767h2.666zm-2.666-.8l2.376-1.21a2.669 2.669 0 00-1.166-1.166l-1.21 2.376zm-9.334.8c0-.395.001-.611.014-.767.011-.14.025-.11-.014-.033l-2.376-1.21a2.704 2.704 0 00-.268 1.026c-.023.29-.022.633-.022.984h2.666zm.8-3.466c-.351 0-.695-.001-.984.022a2.693 2.693 0 00-1.026.268l1.21 2.376c-.076.04-.107.026.033.014.156-.013.372-.014.767-.014v-2.666zm-.8 2.666l-1.21-2.376c-.502.256-.91.664-1.166 1.166l2.376 1.21z" fill="#81A7FF" mask="url(#a)"/><rect x="789" y="12" width="32" height="32" rx="4" fill="#C2E4FF"/><g opacity=".3" fill="#81A7FF"><path d="M800.091 35.273h9.818c.002 0 0-8.729 0-8.729l-3.273.002v-1.09h3.263c.617 0 1.101.485 1.101 1.085v8.737c0 .59-.486 1.086-1.086 1.086h-9.828A1.085 1.085 0 01799 35.278v-8.737a1.1 1.1 0 011.101-1.086h3.263v1.091h-3.263c-.003 0-.01 8.727-.01 8.727zM804.984 21.465l-2.771 2.806a.508.508 0 01-.724 0 .522.522 0 010-.733l3.133-3.172a.508.508 0 01.724 0l3.133 3.172c.2.202.2.53 0 .733a.507.507 0 01-.723 0l-2.772-2.806z"/><path d="M804.454 21.092h1.091v9.818h-1.091v-9.818z"/></g><g opacity=".4"><rect width="32" height="32" rx="4" transform="matrix(-1 0 0 1 170 12)" fill="#C2E4FF"/><path d="M149.792 32.837a1.21 1.21 0 101.756 1.668l6.386-6.722a.1.1 0 000-.138l-6.386-6.721a1.212 1.212 0 00-1.756 1.668l4.868 5.122-4.868 5.123z" fill="#8EAFFF"/></g><rect x="210" y="12" width="497" height="32" rx="4" fill="#C2E4FF"/><path fill="#81A7FF" d="M422 27.199h6.4v4.8H422z"/><path d="M422.801 26.4v.8h.8v-.8a1.6 1.6 0 113.2 0v.8h.8v-.8a2.4 2.4 0 00-4.8 0zM439.964 25.28c.512 0 .964.104 1.356.312.4.2.712.452.936.756v-.96h1.38v6.72c0 .608-.128 1.148-.384 1.62-.256.48-.628.856-1.116 1.128-.48.272-1.056.408-1.728.408-.896 0-1.64-.212-2.232-.636a2.306 2.306 0 01-1.008-1.704h1.356c.104.344.324.62.66.828.344.216.752.324 1.224.324.552 0 .996-.168 1.332-.504.344-.336.516-.824.516-1.464v-1.104a2.834 2.834 0 01-.948.792c-.392.208-.84.312-1.344.312a3.021 3.021 0 01-1.584-.432 3.206 3.206 0 01-1.128-1.224c-.272-.528-.408-1.124-.408-1.788 0-.664.136-1.252.408-1.764a3.047 3.047 0 012.712-1.62zm2.292 3.408c0-.456-.096-.852-.288-1.188a1.938 1.938 0 00-.732-.768 1.93 1.93 0 00-.984-.264c-.352 0-.68.088-.984.264-.304.168-.552.42-.744.756-.184.328-.276.72-.276 1.176 0 .456.092.856.276 1.2.192.344.44.608.744.792a1.974 1.974 0 001.968 0c.304-.176.548-.432.732-.768.192-.344.288-.744.288-1.2zm6.045 3.42c-.624 0-1.188-.14-1.692-.42a3.113 3.113 0 01-1.188-1.2c-.288-.52-.432-1.12-.432-1.8 0-.672.148-1.268.444-1.788.296-.52.7-.92 1.212-1.2a3.517 3.517 0 011.716-.42c.632 0 1.204.14 1.716.42.512.28.916.68 1.212 1.2.296.52.444 1.116.444 1.788 0 .672-.152 1.268-.456 1.788-.304.52-.72.924-1.248 1.212-.52.28-1.096.42-1.728.42zm0-1.188c.352 0 .68-.084.984-.252.312-.168.564-.42.756-.756.192-.336.288-.744.288-1.224s-.092-.884-.276-1.212a1.855 1.855 0 00-.732-.756 2.002 2.002 0 00-.984-.252c-.352 0-.68.084-.984.252-.296.168-.532.42-.708.756-.176.328-.264.732-.264 1.212 0 .712.18 1.264.54 1.656.368.384.828.576 1.38.576zm7.653 1.188c-.624 0-1.188-.14-1.692-.42a3.113 3.113 0 01-1.188-1.2c-.288-.52-.432-1.12-.432-1.8 0-.672.148-1.268.444-1.788.296-.52.7-.92 1.212-1.2a3.517 3.517 0 011.716-.42c.632 0 1.204.14 1.716.42.512.28.916.68 1.212 1.2.296.52.444 1.116.444 1.788 0 .672-.152 1.268-.456 1.788-.304.52-.72.924-1.248 1.212-.52.28-1.096.42-1.728.42zm0-1.188c.352 0 .68-.084.984-.252.312-.168.564-.42.756-.756.192-.336.288-.744.288-1.224s-.092-.884-.276-1.212a1.855 1.855 0 00-.732-.756 2.002 2.002 0 00-.984-.252c-.352 0-.68.084-.984.252-.296.168-.532.42-.708.756-.176.328-.264.732-.264 1.212 0 .712.18 1.264.54 1.656.368.384.828.576 1.38.576zm7.448-5.64c.512 0 .964.104 1.356.312.4.2.712.452.936.756v-.96h1.38v6.72c0 .608-.128 1.148-.384 1.62-.256.48-.628.856-1.116 1.128-.48.272-1.056.408-1.728.408-.896 0-1.64-.212-2.232-.636a2.306 2.306 0 01-1.008-1.704h1.356c.104.344.324.62.66.828.344.216.752.324 1.224.324.552 0 .996-.168 1.332-.504.344-.336.516-.824.516-1.464v-1.104a2.834 2.834 0 01-.948.792c-.392.208-.84.312-1.344.312a3.021 3.021 0 01-1.584-.432 3.206 3.206 0 01-1.128-1.224c-.272-.528-.408-1.124-.408-1.788 0-.664.136-1.252.408-1.764a3.047 3.047 0 012.712-1.62zm2.292 3.408c0-.456-.096-.852-.288-1.188a1.938 1.938 0 00-.732-.768 1.93 1.93 0 00-.984-.264c-.352 0-.68.088-.984.264-.304.168-.552.42-.744.756-.184.328-.276.72-.276 1.176 0 .456.092.856.276 1.2.192.344.44.608.744.792a1.974 1.974 0 001.968 0c.304-.176.548-.432.732-.768.192-.344.288-.744.288-1.2zm4.545-5.568V32h-1.368v-8.88h1.368zm7.856 5.412c0 .248-.016.472-.048.672h-5.052c.04.528.236.952.588 1.272.352.32.784.48 1.296.48.736 0 1.256-.308 1.56-.924h1.476a2.998 2.998 0 01-1.092 1.5c-.52.384-1.168.576-1.944.576-.632 0-1.2-.14-1.704-.42a3.139 3.139 0 01-1.176-1.2c-.28-.52-.42-1.12-.42-1.8 0-.68.136-1.276.408-1.788.28-.52.668-.92 1.164-1.2.504-.28 1.08-.42 1.728-.42.624 0 1.18.136 1.668.408.488.272.868.656 1.14 1.152.272.488.408 1.052.408 1.692zm-1.428-.432c-.008-.504-.188-.908-.54-1.212-.352-.304-.788-.456-1.308-.456-.472 0-.876.152-1.212.456-.336.296-.536.7-.6 1.212h3.66zm3.326 3.984a.847.847 0 01-.624-.252.847.847 0 01-.252-.624c0-.248.084-.456.252-.624a.847.847 0 01.624-.252c.24 0 .444.084.612.252a.847.847 0 01.252.624.847.847 0 01-.252.624.833.833 0 01-.612.252zm1.887-3.396c0-.68.136-1.276.408-1.788.28-.52.664-.92 1.152-1.2.488-.28 1.048-.42 1.68-.42.8 0 1.46.192 1.98.576.528.376.884.916 1.068 1.62h-1.476a1.56 1.56 0 00-.576-.768c-.264-.184-.596-.276-.996-.276-.56 0-1.008.2-1.344.6-.328.392-.492.944-.492 1.656s.164 1.268.492 1.668c.336.4.784.6 1.344.6.792 0 1.316-.348 1.572-1.044h1.476c-.192.672-.552 1.208-1.08 1.608-.528.392-1.184.588-1.968.588-.632 0-1.192-.14-1.68-.42a3.08 3.08 0 01-1.152-1.2c-.272-.52-.408-1.12-.408-1.8zm11.731 2.352c-.2.304-.512.56-.936.768a2.99 2.99 0 01-1.356.312 2.59 2.59 0 01-1.152-.252 2.043 2.043 0 01-.804-.708 1.87 1.87 0 01-.288-1.02c0-.608.22-1.112.66-1.512.448-.4 1.116-.6 2.004-.6h1.872c-.016-.472-.16-.852-.432-1.14-.264-.288-.62-.432-1.068-.432-.408 0-.748.112-1.02.336-.264.224-.432.536-.504.936h-1.344c.096-.728.404-1.32.924-1.776.528-.456 1.196-.684 2.004-.684.528 0 1.004.116 1.428.348.432.224.772.552 1.02.984.256.432.384.94.384 1.524V32h-1.392v-.96zm-2.004-.12c.312 0 .62-.064.924-.192.312-.136.568-.336.768-.6.208-.272.312-.6.312-.984v-.012h-1.872c-.432 0-.752.084-.96.252-.2.168-.3.384-.3.648 0 .272.1.488.3.648.2.16.476.24.828.24zM694.077 23.846v.923a4.154 4.154 0 104.154 4.154h.923a5.077 5.077 0 11-5.077-5.077z" fill="#81A7FF"/><path d="M697.308 24.308l-3.693 2.307V22l3.693 2.308z" fill="#81A7FF"/><path fill="#D6EDFF" stroke="#E8F5FF" d="M885.5 24.5h31v32h-31z"/><rect x="900.728" y="32" width="1.545" height="17" rx=".773" fill="#81A7FF"/><rect x="893" y="41.273" width="1.545" height="17" rx=".773" transform="rotate(-90 893 41.273)" fill="#81A7FF"/></g></g></g><defs><clipPath id="clip0"><rect width="917" height="532" rx="4" fill="#fff"/></clipPath><clipPath id="clip1"><path d="M0 4a4 4 0 014-4h909a4 4 0 014 4v52H0V4z" fill="#fff"/></clipPath><filter id="filter0_d" x="-16" y="-12" width="949" height="88" filterUnits="userSpaceOnUse" color-interpolation-filters="sRGB"><feFlood flood-opacity="0" result="BackgroundImageFix"/><feColorMatrix in="SourceAlpha" values="0 0 0 0 0 0 0 0 0 0 0 0 0 0 0 0 0 0 127 0"/><feOffset dy="4"/><feGaussianBlur stdDeviation="8"/><feColorMatrix values="0 0 0 0 0.360784 0 0 0 0 0.643137 0 0 0 0 0.756863 0 0 0 0.1 0"/><feBlend in2="BackgroundImageFix" result="effect1_dropShadow"/><feBlend in="SourceGraphic" in2="effect1_dropShadow" result="shape"/></filter></defs></svg>