<svg viewBox="0 0 77 73" fill="none" xmlns="http://www.w3.org/2000/svg"><path d="M37.808 46.619a1.708 1.708 0 0 1-.77.229l-8.801.425c-2.498.12-4.646-.124-6.571-.742-4.212-1.35-7.745-4.165-9.949-7.928L4.461 26.218c-.838-1.429-.65-3.254.462-4.543l9.964-11.511a4.117 4.117 0 0 1 2.31-1.351L32.11 5.765c1.669-.343 3.353.389 4.188 1.817l7.262 12.394c2.202 3.757 2.93 8.21 2.051 12.541-.403 1.987-1.244 3.978-2.566 6.09l-4.662 7.452a1.67 1.67 0 0 1-.575.56" fill="url(#a)"/><g filter="url(#b)"><path d="M33.916 39.239a1.299 1.299 0 0 1-.514.17l-5.795.588c-1.645.166-3.047.097-4.288-.21-2.715-.672-4.93-2.268-6.237-4.495l-4.304-7.33c-.497-.846-.306-1.973.473-2.805l6.971-7.436c.412-.445.97-.77 1.568-.915l9.907-2.426c1.108-.273 2.187.114 2.682.96l4.307 7.335c1.306 2.223 1.618 4.93.88 7.62-.339 1.234-.965 2.487-1.912 3.832l-3.34 4.747c-.102.148-.24.273-.398.365" fill="#173DE3" fill-opacity=".5"/></g><g filter="url(#c)"><mask id="e" maskUnits="userSpaceOnUse" x="16.894" y="6.203" width="59.528" height="67.055" fill="#000"><path fill="#fff" d="M16.894 6.203h59.528v67.055H16.894z"/><path d="M42.606 68.302a2.262 2.262 0 0 1-.99-.404l-9.476-6.913c-2.689-1.964-4.713-4.014-6.193-6.268-3.24-4.93-4.559-10.82-3.707-16.59l2.797-18.991c.323-2.192 2.038-3.94 4.265-4.355l19.919-3.684a5.446 5.446 0 0 1 3.52.521l17.998 9.286c2.016 1.036 3.152 3.208 2.827 5.397l-2.8 19.005c-.847 5.761-3.803 11.018-8.322 14.803-2.073 1.736-4.604 3.112-7.734 4.209l-11.042 3.88a2.21 2.21 0 0 1-1.062.105"/></mask><path d="M42.606 68.302a2.262 2.262 0 0 1-.99-.404l-9.476-6.913c-2.689-1.964-4.713-4.014-6.193-6.268-3.24-4.93-4.559-10.82-3.707-16.59l2.797-18.991c.323-2.192 2.038-3.94 4.265-4.355l19.919-3.684a5.446 5.446 0 0 1 3.52.521l17.998 9.286c2.016 1.036 3.152 3.208 2.827 5.397l-2.8 19.005c-.847 5.761-3.803 11.018-8.322 14.803-2.073 1.736-4.604 3.112-7.734 4.209l-11.042 3.88a2.21 2.21 0 0 1-1.062.105" fill="#556AF1" fill-opacity=".35"/><path d="M42.499 69.003a.708.708 0 0 0 .215-1.4l-.215 1.4zm-.882-1.105.417-.573-.417.573zm-9.477-6.913-.418.572.418-.573zm-6.193-6.268.592-.389-.592.389zm-3.707-16.59.701.103-.7-.103zm2.797-18.991.701.103-.7-.103zm4.265-4.355-.13-.697.13.697zm19.919-3.684.129.696h.005l-.134-.696zm3.52.521-.326.629h.002l.324-.629zm17.998 9.286-.324.63.324-.63zm2.827 5.397-.7-.104.7.104zm-2.8 19.005-.7-.104.7.104zm-8.322 14.803.455.543-.455-.543zm-7.734 4.209-.234-.669.234.669zm-11.042 3.88-.235-.667h-.003l.238.668zm-.96-.596a.708.708 0 1 0-.204 1.401l.204-1.401zm.006 0a1.554 1.554 0 0 1-.68-.277L41.2 68.47c.39.285.84.462 1.3.533l.215-1.4zm-.68-.277-9.476-6.913-.835 1.145 9.476 6.913.835-1.145zm-9.476-6.913c-2.635-1.924-4.595-3.916-6.019-6.084l-1.184.778c1.536 2.339 3.625 4.448 6.367 6.45l.836-1.144zm-6.019-6.084c-3.146-4.787-4.424-10.503-3.598-16.098l-1.402-.207c-.877 5.944.482 12.01 3.816 17.083l1.184-.778zM22.941 38.23l2.797-18.991-1.402-.207-2.797 18.991 1.402.207zm2.797-18.991c.277-1.882 1.754-3.4 3.694-3.762l-.26-1.393c-2.514.469-4.468 2.447-4.836 4.949l1.402.206zm3.692-3.762 19.92-3.684-.258-1.393-19.92 3.684.258 1.393zm19.925-3.685a4.737 4.737 0 0 1 3.06.455l.653-1.258a6.153 6.153 0 0 0-3.981-.588l.268 1.391zm3.062.456 17.998 9.285.65-1.259-17.999-9.286-.65 1.26zm17.998 9.286c1.754.901 2.73 2.783 2.45 4.663l1.402.208c.37-2.498-.927-4.96-3.204-6.131l-.648 1.26zm2.45 4.663-2.799 19.005 1.402.207 2.799-19.005-1.402-.207zm-2.799 19.005c-.822 5.588-3.69 10.689-8.077 14.364l.91 1.086c4.65-3.895 7.695-9.307 8.569-15.243l-1.402-.207zm-8.077 14.364c-1.994 1.67-4.445 3.008-7.513 4.083l.469 1.338c3.192-1.12 5.802-2.533 7.954-4.335l-.91-1.086zm-7.514 4.084-11.042 3.88.47 1.337 11.042-3.88-.47-1.337zM43.43 67.532c-.23.082-.478.105-.722.07l-.204 1.401c.466.068.947.025 1.402-.137l-.476-1.334z" fill="url(#d)" mask="url(#e)"/></g><g filter="url(#f)"><path d="M43.789 46.01a2.21 2.21 0 0 1-1.438-.841l-4.67-6.114a2.088 2.088 0 0 1 .44-2.974 2.226 2.226 0 0 1 3.057.45l3.36 4.397 11.088-8.013a2.226 2.226 0 0 1 3.057.45c.724.95.528 2.283-.437 2.975l-12.838 9.28a2.199 2.199 0 0 1-1.62.39z" fill="url(#g)"/><path d="M38.162 36.138a2.018 2.018 0 0 0-.425 2.874l4.67 6.114c.351.46.856.734 1.392.814.536.08 1.099-.04 1.567-.378l12.839-9.279a2.015 2.015 0 0 0 .422-2.875 2.156 2.156 0 0 0-2.96-.435l-17.505 3.165zm0 0a2.155 2.155 0 0 1 2.96.436l3.36 4.397.042.055.056-.04 11.088-8.013-17.506 3.165z" stroke="url(#h)" stroke-opacity=".5" stroke-width=".142"/></g><defs><linearGradient id="a" x1="32.028" y1=".001" x2="20.722" y2="42.176" gradientUnits="userSpaceOnUse"><stop stop-color="#9296FF"/><stop offset="1" stop-color="#173DE3"/></linearGradient><linearGradient id="d" x1="33.563" y1="15.196" x2="64.795" y2="60.157" gradientUnits="userSpaceOnUse"><stop stop-color="#fff" stop-opacity=".25"/><stop offset="1" stop-color="#fff" stop-opacity="0"/></linearGradient><linearGradient id="g" x1="57.512" y1="35.374" x2="34.042" y2="32.837" gradientUnits="userSpaceOnUse"><stop stop-color="#E8F5FF"/><stop offset="1" stop-color="#E8F5FF" stop-opacity=".21"/></linearGradient><linearGradient id="h" x1="39.946" y1="35.081" x2="57.711" y2="37.952" gradientUnits="userSpaceOnUse"><stop stop-color="#E8F5FF"/><stop offset="1" stop-color="#E8F5FF" stop-opacity="0"/></linearGradient><filter id="b" x="1.169" y="2.958" width="50.124" height="48.461" filterUnits="userSpaceOnUse" color-interpolation-filters="sRGB"><feFlood flood-opacity="0" result="BackgroundImageFix"/><feBlend in="SourceGraphic" in2="BackgroundImageFix" result="shape"/><feGaussianBlur stdDeviation="5.667" result="effect1_foregroundBlur"/></filter><filter id="c" x=".246" y="-10.467" width="93.02" height="100.279" filterUnits="userSpaceOnUse" color-interpolation-filters="sRGB"><feFlood flood-opacity="0" result="BackgroundImageFix"/><feGaussianBlur in="BackgroundImage" stdDeviation="8.501"/><feComposite in2="SourceAlpha" operator="in" result="effect1_backgroundBlur"/><feBlend in="SourceGraphic" in2="effect1_backgroundBlur" result="shape"/></filter><filter id="f" x="25.511" y="19.01" width="44.535" height="39.671" filterUnits="userSpaceOnUse" color-interpolation-filters="sRGB"><feFlood flood-opacity="0" result="BackgroundImageFix"/><feGaussianBlur in="BackgroundImage" stdDeviation="5.313"/><feComposite in2="SourceAlpha" operator="in" result="effect1_backgroundBlur"/><feColorMatrix in="SourceAlpha" values="0 0 0 0 0 0 0 0 0 0 0 0 0 0 0 0 0 0 127 0"/><feOffset dx="3.542" dy="3.542"/><feGaussianBlur stdDeviation="3.542"/><feColorMatrix values="0 0 0 0 0.0588235 0 0 0 0 0.188235 0 0 0 0 0.666667 0 0 0 0.5 0"/><feBlend in2="effect1_backgroundBlur" result="effect2_dropShadow"/><feBlend in="SourceGraphic" in2="effect2_dropShadow" result="shape"/></filter></defs></svg>