<svg viewBox="0 0 79 73" fill="none" xmlns="http://www.w3.org/2000/svg"><path d="M39.074 3.8 14.2 10.463c-9.065 2.43-12.824 8.94-10.396 18.005l6.658 24.848c2.429 9.064 8.94 12.823 18.005 10.394l24.875-6.665c9.065-2.429 12.8-8.934 10.372-17.998L57.056 14.2C54.627 5.136 48.139 1.37 39.074 3.8z" fill="#556AF1"/><g opacity=".5" filter="url(#a)"><path d="M37.5 14.806 21.06 19.212c-5.992 1.605-8.52 5.745-6.993 11.447l4.189 15.631c1.527 5.702 5.788 8.023 11.78 6.418l16.44-4.406c5.992-1.605 8.505-5.741 6.977-11.443l-4.188-15.631C47.736 15.526 43.49 13.2 37.5 14.806z" fill="#173DE3"/></g><g filter="url(#b)"><path d="M56.4 16.871H32.501c-9.343 0-15.628 6.56-15.628 16.317v22.519c0 9.73 6.285 16.29 15.628 16.29H56.4c9.344 0 15.6-6.56 15.6-16.29V33.188c0-9.757-6.256-16.317-15.6-16.317z" fill="#556AF1" fill-opacity=".35"/><path d="M56.4 16.499H32.501c-4.762 0-8.77 1.673-11.586 4.614-2.816 2.94-4.414 7.116-4.414 12.075v22.519c0 4.946 1.598 9.115 4.414 12.05 2.816 2.938 6.824 4.612 11.586 4.612H56.4c4.762 0 8.764-1.674 11.573-4.612 2.809-2.935 4.4-7.105 4.4-12.05V33.188c0-4.959-1.591-9.135-4.4-12.075-2.81-2.94-6.81-4.614-11.573-4.614z" stroke="url(#c)" stroke-width=".745" stroke-linecap="round" stroke-linejoin="round"/></g><g filter="url(#d)"><path d="M74.923 12.824a4.05 4.05 0 1 0 0 8.1 4.05 4.05 0 0 0 0-8.1z" fill="url(#e)"/></g><g filter="url(#f)"><path d="m58.859 39.555-7.877 10.164a2.036 2.036 0 0 1-2.908.363l-7.562-5.929-6.81 8.81a2.038 2.038 0 0 1-3.757-1.187c-.005-.457.15-.901.436-1.258l8.143-10.503a2.037 2.037 0 0 1 2.884-.388l7.562 5.954 6.641-8.543a2.012 2.012 0 0 1 2.86-.411 2.08 2.08 0 0 1 .388 2.88v.048z" fill="url(#g)"/><path d="m50.864 49.628-.001.002a1.888 1.888 0 0 1-2.696.336h-.001l-7.562-5.93-.118-.093-.092.119-6.81 8.81-.005.005-.004.006a1.888 1.888 0 0 1-3.482-1.099l-.148-.008h.149a1.833 1.833 0 0 1 .403-1.165l.002-.002 8.143-10.503.002-.002a1.888 1.888 0 0 1 2.673-.359l7.561 5.953.118.093.092-.118 6.64-8.544h.001l.003-.004a1.863 1.863 0 0 1 2.648-.38 1.93 1.93 0 0 1 .36 2.672l-.03.04v.047l-7.846 10.124z" stroke="url(#h)" stroke-width=".298"/></g><defs><linearGradient id="c" x1="25.649" y1="23.293" x2="60.813" y2="66.845" gradientUnits="userSpaceOnUse"><stop stop-color="#fff" stop-opacity=".25"/><stop offset="1" stop-color="#fff" stop-opacity="0"/></linearGradient><linearGradient id="e" x1="75.519" y1="17.417" x2="68.402" y2="20.877" gradientUnits="userSpaceOnUse"><stop stop-color="#9296FF"/><stop offset="1" stop-color="#173DE3"/></linearGradient><linearGradient id="g" x1="57.191" y1="39.404" x2="24.582" y2="41.166" gradientUnits="userSpaceOnUse"><stop stop-color="#E8F5FF"/><stop offset="1" stop-color="#E8F5FF" stop-opacity=".2"/></linearGradient><linearGradient id="h" x1="34.611" y1="38.27" x2="43.712" y2="56.941" gradientUnits="userSpaceOnUse"><stop stop-color="#fff" stop-opacity=".25"/><stop offset="1" stop-color="#fff" stop-opacity="0"/></linearGradient><filter id="a" x=".965" y="1.643" width="65.59" height="64.227" filterUnits="userSpaceOnUse" color-interpolation-filters="sRGB"><feFlood flood-opacity="0" result="BackgroundImageFix"/><feBlend in="SourceGraphic" in2="BackgroundImageFix" result="shape"/><feGaussianBlur stdDeviation="6.333" result="effect1_foregroundBlur"/></filter><filter id="b" x="-1.752" y="-1.756" width="92.377" height="92.377" filterUnits="userSpaceOnUse" color-interpolation-filters="sRGB"><feFlood flood-opacity="0" result="BackgroundImageFix"/><feGaussianBlur in="BackgroundImage" stdDeviation="8.941"/><feComposite in2="SourceAlpha" operator="in" result="effect1_backgroundBlur"/><feBlend in="SourceGraphic" in2="effect1_backgroundBlur" result="shape"/></filter><filter id="d" x="59.697" y="1.649" width="30.451" height="30.451" filterUnits="userSpaceOnUse" color-interpolation-filters="sRGB"><feFlood flood-opacity="0" result="BackgroundImageFix"/><feGaussianBlur in="BackgroundImage" stdDeviation="5.588"/><feComposite in2="SourceAlpha" operator="in" result="effect1_backgroundBlur"/><feBlend in="SourceGraphic" in2="effect1_backgroundBlur" result="shape"/></filter><filter id="f" x="18.766" y="25.031" width="51.68" height="40.058" filterUnits="userSpaceOnUse" color-interpolation-filters="sRGB"><feFlood flood-opacity="0" result="BackgroundImageFix"/><feGaussianBlur in="BackgroundImage" stdDeviation="5.588"/><feComposite in2="SourceAlpha" operator="in" result="effect1_backgroundBlur"/><feColorMatrix in="SourceAlpha" values="0 0 0 0 0 0 0 0 0 0 0 0 0 0 0 0 0 0 127 0"/><feOffset dx="3.725" dy="3.725"/><feGaussianBlur stdDeviation="3.725"/><feColorMatrix values="0 0 0 0 0.572549 0 0 0 0 0.588235 0 0 0 0 1 0 0 0 0.5 0"/><feBlend in2="effect1_backgroundBlur" result="effect2_dropShadow"/><feBlend in="SourceGraphic" in2="effect2_dropShadow" result="shape"/></filter></defs></svg>