<svg viewBox="0 0 25 25" fill="none" xmlns="http://www.w3.org/2000/svg"><path d="M10.008 12a1 1 0 1 1-2 0 1 1 0 0 1 2 0zM15.009 13a1 1 0 1 0 0-2 1 1 0 0 0 0 2z" fill="#273D63"/><path fill-rule="evenodd" clip-rule="evenodd" d="M12.033 2h-.024C6.485 2 2.008 6.478 2.008 12c0 5.524 4.477 10.002 10 10.002 5.524 0 10.001-4.478 10.001-10.001 0-5.258-4.058-9.569-9.212-9.97v-.003A9.932 9.932 0 0 0 12.033 2zm-.024 18.001A8 8 0 0 0 19.75 9.978a10.017 10.017 0 0 1-8.982-4.375 7.976 7.976 0 0 1-5.692 2.4 8 8 0 0 0 6.932 11.998zm-.022-16h.045-.045z" fill="#273D63"/></svg>