<svg viewBox="0 0 25 25" fill="none" xmlns="http://www.w3.org/2000/svg"><path fill-rule="evenodd" clip-rule="evenodd" d="M4.942 19.071c-3.906-3.905-3.906-10.237 0-14.142 3.905-3.905 10.236-3.905 14.142 0 3.905 3.905 3.905 10.237 0 14.142-3.905 3.905-10.237 3.905-14.142 0zm-.872-8.03a7.966 7.966 0 0 1 2.286-4.698 7.966 7.966 0 0 1 4.716-2.288l.01.056a11.011 11.011 0 0 0 8.82 8.819l.056.01a7.966 7.966 0 0 1-2.288 4.717 7.966 7.966 0 0 1-4.698 2.286A11.011 11.011 0 0 0 4.07 11.04zm.07 2.388v-.334a9.013 9.013 0 0 1 6.778 6.777h-.334a7.964 7.964 0 0 1-4.228-2.215 7.964 7.964 0 0 1-2.215-4.228zm15.761-2.54v-.223a7.963 7.963 0 0 0-2.232-4.323 7.964 7.964 0 0 0-4.322-2.232h-.223a9.013 9.013 0 0 0 6.777 6.777z" fill="#273D63"/></svg>