<svg width="24" height="24" viewBox="0 0 24 24" fill="none" xmlns="http://www.w3.org/2000/svg">
<path fill-rule="evenodd" clip-rule="evenodd" d="M18.319 14.4309C20.7628 11.2924 20.542 6.75176 17.6569 3.86658C14.5327 0.742389 9.46734 0.742389 6.34315 3.86658C3.21895 6.99078 3.21895 12.0561 6.34315 15.1803C9.22833 18.0655 13.769 18.2862 16.9075 15.8425C16.921 15.8578 16.9351 15.8728 16.9497 15.8874L21.1924 20.13C21.5829 20.5206 22.2161 20.5206 22.6066 20.13C22.9971 19.7395 22.9971 19.1063 22.6066 18.7158L18.364 14.4732C18.3493 14.4585 18.3343 14.4445 18.319 14.4309ZM16.2426 5.2808C18.5858 7.62394 18.5858 11.4229 16.2426 13.7661C13.8995 16.1092 10.1005 16.1092 7.75736 13.7661C5.41421 11.4229 5.41421 7.62394 7.75736 5.2808C10.1005 2.93765 13.8995 2.93765 16.2426 5.2808Z" fill="#273D63"/>
</svg>
