<svg viewBox="0 0 16 16" fill="none" xmlns="http://www.w3.org/2000/svg"><path d="M14.667 7.999A6.668 6.668 0 0 0 8 1.332v1.333A5.335 5.335 0 0 1 13.334 8h1.333zM1.333 6.665V3.332c0-.368.299-.667.667-.667h3.333c.369 0 .667.299.667.667v2.667a.667.667 0 0 1-.667.666H4A5.333 5.333 0 0 0 9.334 12v-1.334c0-.368.298-.666.666-.666h2.667c.368 0 .667.298.667.666V14a.667.667 0 0 1-.667.666H9.334a8 8 0 0 1-8-8z" fill="#E8F5FF"/><path d="M11.696 6.468A4 4 0 0 1 12 7.998h-1.2a2.8 2.8 0 0 0-2.8-2.8v-1.2a4 4 0 0 1 3.696 2.47z" fill="#E8F5FF"/></svg>