<svg viewBox="0 0 25 25" fill="none" xmlns="http://www.w3.org/2000/svg"><path d="M6.01 2.5a1 1 0 0 0-1 1v2a1 1 0 1 0 2 0v-2a1 1 0 0 0-1-1z" fill="#273D63"/><path fill-rule="evenodd" clip-rule="evenodd" d="M13.01 21.5a6.002 6.002 0 0 0 5.917-5h.083a4 4 0 0 0 0-8v-1h-18v8a6 6 0 0 0 6 6h6zm-10-12v6a4 4 0 0 0 4 4h6a4 4 0 0 0 4-4v-6h-14zm18 3a2 2 0 0 1-2 2v-4a2 2 0 0 1 2 2z" fill="#273D63"/><path d="M9.01 3.5a1 1 0 0 1 2 0v2a1 1 0 0 1-2 0v-2zM14.01 2.5a1 1 0 0 0-1 1v2a1 1 0 1 0 2 0v-2a1 1 0 0 0-1-1z" fill="#273D63"/></svg>