<svg width="25" height="25" viewBox="0 0 25 25" fill="none" xmlns="http://www.w3.org/2000/svg">
<path fill-rule="evenodd" clip-rule="evenodd" d="M18.2103 2H23.002V4H19.7836L17.0148 16.6776H17.002V17H4.00195V16.7519L1.80873 7.09095L1.47119 6H17.3468L17.9171 3.38852L18.2103 2ZM4.0151 8H16.9099L15.3811 15H5.60417L4.0151 8Z" fill="#273D63"/>
<path d="M14.002 22C12.8974 22 12.002 21.1046 12.002 20C12.002 18.8954 12.8974 18 14.002 18C15.1065 18 16.002 18.8954 16.002 20C16.002 21.1046 15.1065 22 14.002 22Z" fill="#273D63"/>
<path d="M5.00195 20C5.00195 21.1046 5.89738 22 7.00195 22C8.10652 22 9.00195 21.1046 9.00195 20C9.00195 18.8954 8.10652 18 7.00195 18C5.89738 18 5.00195 18.8954 5.00195 20Z" fill="#273D63"/>
</svg>
