<svg viewBox="0 0 81 76" fill="none" xmlns="http://www.w3.org/2000/svg"><g filter="url(#a)"><path d="M27 2.992c-13.248 0-24 10.755-24 24 0 13.25 10.752 24 24 24 13.272 0 24-10.75 24-24 0-13.245-10.728-24-24-24z" fill="url(#b)"/></g><g opacity=".5" filter="url(#c)"><path d="M27 15.273c-6.472 0-11.724 5.254-11.724 11.724 0 6.473 5.252 11.724 11.724 11.724 6.483 0 11.724-5.25 11.724-11.724 0-6.47-5.24-11.724-11.724-11.724z" fill="#173DE3"/></g><g filter="url(#d)"><path fill-rule="evenodd" clip-rule="evenodd" d="M79.23 46.899c-3.804-8.183-9.102-14.722-15.324-19.192-6.222-4.502-13.369-6.934-20.907-6.934h-.035c-15.04 0-28.587 9.76-36.196 26.126a2.309 2.309 0 0 0 0 1.939c7.609 16.365 21.156 26.158 36.196 26.158h.035c15.076 0 28.623-9.793 36.232-26.158a2.308 2.308 0 0 0 0-1.94z" fill="#556AF1" fill-opacity=".5"/><path d="m79.571 46.744-.001-.003c-3.828-8.233-9.164-14.826-15.445-19.337C57.843 22.859 50.62 20.399 43 20.399h-.035c-15.218 0-28.88 9.877-36.535 26.342h0l-.002.003a2.683 2.683 0 0 0 .003 2.254C14.085 65.46 27.746 75.37 42.964 75.37h.035c15.253 0 28.914-9.909 36.57-26.373.334-.696.33-1.534.002-2.253z" stroke="url(#e)" stroke-width=".748" stroke-linecap="round" stroke-linejoin="round"/></g><g filter="url(#f)"><path d="M53.666 48.352c0 5.857-4.788 10.646-10.645 10.646-5.9 0-10.688-4.789-10.688-10.646 0-.727.085-1.41.213-2.095h.214c4.746 0 8.593-3.762 8.764-8.465.47-.085.984-.128 1.497-.128 5.857 0 10.645 4.788 10.645 10.688z" fill="url(#g)"/><path d="M53.591 48.352c0 5.816-4.755 10.57-10.57 10.57-5.86 0-10.614-4.754-10.614-10.57 0-.7.08-1.36.202-2.02h.151c4.766 0 8.634-3.762 8.837-8.477.449-.077.936-.116 1.424-.116 5.815 0 10.57 4.755 10.57 10.613z" stroke="url(#h)" stroke-opacity=".5" stroke-width=".15"/></g><defs><linearGradient id="b" x1="30.534" y1="30.207" x2="-11.643" y2="50.714" gradientUnits="userSpaceOnUse"><stop stop-color="#556AF1"/><stop offset="1" stop-color="#173DE3"/></linearGradient><linearGradient id="e" x1="18.157" y1="27.09" x2="49.393" y2="79.094" gradientUnits="userSpaceOnUse"><stop stop-color="#fff" stop-opacity=".25"/><stop offset="1" stop-color="#fff" stop-opacity="0"/></linearGradient><linearGradient id="g" x1="52.153" y1="41.516" x2="28.39" y2="42.291" gradientUnits="userSpaceOnUse"><stop stop-color="#E8F5FF"/><stop offset="1" stop-color="#E8F5FF" stop-opacity=".2"/></linearGradient><linearGradient id="h" x1="52.752" y1="48.782" x2="32.011" y2="49.646" gradientUnits="userSpaceOnUse"><stop stop-color="#E8F5FF"/><stop offset="1" stop-color="#E8F5FF" stop-opacity="0"/></linearGradient><filter id="a" x="-6.73" y="-6.738" width="67.46" height="67.46" filterUnits="userSpaceOnUse" color-interpolation-filters="sRGB"><feFlood flood-opacity="0" result="BackgroundImageFix"/><feGaussianBlur in="BackgroundImage" stdDeviation="4.865"/><feComposite in2="SourceAlpha" operator="in" result="effect1_backgroundBlur"/><feBlend in="SourceGraphic" in2="effect1_backgroundBlur" result="shape"/></filter><filter id="c" x=".307" y=".305" width="53.386" height="53.386" filterUnits="userSpaceOnUse" color-interpolation-filters="sRGB"><feFlood flood-opacity="0" result="BackgroundImageFix"/><feBlend in="SourceGraphic" in2="BackgroundImageFix" result="shape"/><feGaussianBlur stdDeviation="7.484" result="effect1_foregroundBlur"/></filter><filter id="d" x="-5.42" y="8.797" width="96.839" height="78.172" filterUnits="userSpaceOnUse" color-interpolation-filters="sRGB"><feFlood flood-opacity="0" result="BackgroundImageFix"/><feGaussianBlur in="BackgroundImage" stdDeviation="5.613"/><feComposite in2="SourceAlpha" operator="in" result="effect1_backgroundBlur"/><feBlend in="SourceGraphic" in2="effect1_backgroundBlur" result="shape"/></filter><filter id="f" x="21.106" y="26.438" width="43.787" height="43.787" filterUnits="userSpaceOnUse" color-interpolation-filters="sRGB"><feFlood flood-opacity="0" result="BackgroundImageFix"/><feGaussianBlur in="BackgroundImage" stdDeviation="5.613"/><feComposite in2="SourceAlpha" operator="in" result="effect1_backgroundBlur"/><feColorMatrix in="SourceAlpha" values="0 0 0 0 0 0 0 0 0 0 0 0 0 0 0 0 0 0 127 0"/><feOffset dx="3.742" dy="3.742"/><feGaussianBlur stdDeviation="3.742"/><feColorMatrix values="0 0 0 0 0.333333 0 0 0 0 0.415686 0 0 0 0 0.945098 0 0 0 0.51 0"/><feBlend in2="effect1_backgroundBlur" result="effect2_dropShadow"/><feBlend in="SourceGraphic" in2="effect2_dropShadow" result="shape"/></filter></defs></svg>