<svg width="149" height="64" viewBox="0 0 149 64" fill="none" xmlns="http://www.w3.org/2000/svg">
<g clip-path="url(#clip0)">
<path d="M35.8186 33.7965L47.78 54.5142C47.78 54.5142 36.3728 61.8036 23.7943 54.4732C11.2158 47.1428 11.9822 33.8274 11.9822 33.8274L35.8186 33.7965Z" fill="#2F80ED"/>
<path d="M35.8561 30.9199L47.8175 10.2021C47.8175 10.2021 36.4103 2.91279 23.8318 10.2432C11.2533 17.5735 12.0196 30.8889 12.0196 30.8889L35.8561 30.9199Z" fill="#2F80ED"/>
<path d="M36.2674 32.4091L42.2443 22.0569C42.2443 22.0569 48.2486 25.172 48.2191 32.4466C48.1896 39.7212 42.2361 42.7163 42.2361 42.7163L36.2674 32.4091Z" fill="white"/>
<path d="M36.2765 32.3713L42.2533 42.7235C42.2533 42.7235 36.5534 46.3658 30.2681 42.703C23.9829 39.0402 24.3658 32.3867 24.3658 32.3867L36.2765 32.3713Z" fill="white"/>
<path d="M36.2951 32.4251L42.272 22.0729C42.272 22.0729 36.5721 18.4306 30.2868 22.0934C24.0016 25.7562 24.3845 32.4097 24.3845 32.4097L36.2951 32.4251Z" fill="white"/>
<path d="M36.2646 32.3688L36.2723 32.3554L39.253 27.1927C39.253 27.1927 39.2554 27.1939 39.2602 27.1965C39.4213 27.2829 42.2548 28.8537 42.2404 32.3875C42.2257 36.0248 39.2489 37.5224 39.2489 37.5224L36.2646 32.3688Z" fill="#2F80ED"/>
<path d="M36.2691 32.3498L36.2723 32.3554L39.2575 37.526C39.2575 37.526 36.4075 39.3471 33.2649 37.5157C30.1223 35.6843 30.3138 32.3576 30.3138 32.3576L30.3226 32.3576L36.2691 32.3498Z" fill="#2F80ED"/>
<path fill-rule="evenodd" clip-rule="evenodd" d="M39.2669 27.2007L36.2784 32.3768L30.3231 32.3691C30.3231 32.3691 30.3229 32.3652 30.3226 32.3576L36.2691 32.3498L36.2723 32.3554L39.253 27.1927C39.253 27.1927 39.2554 27.1939 39.2602 27.1965C39.2646 27.1992 39.2669 27.2007 39.2669 27.2007Z" fill="#2F80ED"/>
<path d="M30.3226 32.3576L36.2691 32.3498L36.2723 32.3554L39.253 27.1927C39.253 27.1927 39.2554 27.1939 39.2602 27.1965C39.1062 27.101 36.3284 25.4311 33.2743 27.2109C30.2392 28.9797 30.3139 32.1432 30.3226 32.3576Z" fill="#2F80ED"/>
<path d="M58.7202 30.104C58.8543 30.1208 58.9632 30.1291 59.047 30.1291C59.1476 30.1291 59.2314 30.1291 59.2984 30.1291C59.9186 30.1291 60.4214 29.9448 60.8069 29.576C61.1924 29.2073 61.3851 28.7296 61.3851 28.143C61.3851 27.5732 61.2007 27.1123 60.832 26.7603C60.48 26.4083 60.0191 26.2323 59.4493 26.2323C58.8459 26.2323 58.3598 26.4335 57.9911 26.8357C57.6224 27.238 57.438 27.7575 57.438 28.3944H52.8875C53.0049 27.4056 53.2479 26.5256 53.6166 25.7547C54.0021 24.9837 54.4882 24.3384 55.0748 23.8188C55.6614 23.2825 56.3486 22.8802 57.1363 22.6121C57.9241 22.3271 58.7956 22.1847 59.751 22.1847C60.6895 22.1847 61.5359 22.3188 62.2902 22.5869C63.0611 22.8383 63.7148 23.2071 64.2511 23.6931C64.8042 24.1624 65.2232 24.7407 65.5082 25.4278C65.8099 26.0982 65.9607 26.8525 65.9607 27.6905C65.9607 28.5956 65.7847 29.3414 65.4327 29.928C65.0975 30.4979 64.6115 30.9923 63.9746 31.4113C64.9467 31.713 65.7009 32.2577 66.2372 33.0455C66.7903 33.8164 67.0669 34.7718 67.0669 35.9115C67.0669 36.8501 66.8825 37.7049 66.5138 38.4758C66.1451 39.2468 65.6255 39.9089 64.9551 40.4619C64.3014 41.015 63.5137 41.4424 62.5918 41.7441C61.6868 42.0458 60.6895 42.1967 59.6001 42.1967C58.1419 42.1967 56.8263 41.9117 55.653 41.3419C54.4798 40.772 53.5412 39.867 52.8373 38.6267C52.5188 38.0736 52.3009 37.5205 52.1836 36.9674C52.083 36.4143 52.0328 35.8528 52.0328 35.283H56.9101C56.9436 36.1713 57.2034 36.8501 57.6894 37.3194C58.1755 37.7719 58.8291 37.9982 59.6504 37.9982C60.5219 37.9982 61.1588 37.7635 61.5611 37.2942C61.9633 36.8249 62.1645 36.2467 62.1645 35.5595C62.1645 34.7383 61.9214 34.1181 61.4354 33.6991C60.9493 33.2801 60.3711 33.0706 59.7007 33.0706C59.5331 33.0706 59.3738 33.0874 59.223 33.1209C59.0722 33.1376 58.9045 33.1628 58.7202 33.1963V30.104ZM81.0875 22.7126L75.7074 28.8972H75.808C76.2773 28.6123 76.6628 28.4447 76.9645 28.3944C77.2661 28.3274 77.5343 28.2939 77.769 28.2939C78.6908 28.2939 79.5372 28.4699 80.3082 28.8218C81.0791 29.1738 81.7496 29.6598 82.3194 30.28C82.8893 30.8834 83.3334 31.5957 83.6519 32.4169C83.9703 33.2382 84.1295 34.1181 84.1295 35.0567C84.1295 36.0623 83.9452 37.0009 83.5764 37.8725C83.2077 38.7272 82.6714 39.4815 81.9674 40.1351C81.2803 40.772 80.4422 41.2748 79.4534 41.6436C78.4645 42.0123 77.3499 42.1967 76.1097 42.1967C74.8526 42.1967 73.7297 42.0123 72.7408 41.6436C71.752 41.2748 70.9056 40.772 70.2016 40.1351C69.5144 39.4982 68.9865 38.7608 68.6177 37.9227C68.249 37.068 68.0647 36.1629 68.0647 35.2076C68.0647 34.1349 68.2993 32.9784 68.7686 31.7381C69.2546 30.4811 69.9921 29.2492 70.981 28.0425L75.3806 22.7126H81.0875ZM72.9419 35.1573C72.9419 35.593 73.0257 36.0037 73.1934 36.3892C73.361 36.7579 73.5872 37.0847 73.8721 37.3696C74.1571 37.6546 74.4839 37.8808 74.8526 38.0484C75.2381 38.216 75.6488 38.2999 76.0845 38.2999C76.5203 38.2999 76.9226 38.216 77.2913 38.0484C77.6768 37.8808 78.012 37.6546 78.2969 37.3696C78.5818 37.0847 78.8081 36.7579 78.9757 36.3892C79.1433 36.0037 79.2271 35.593 79.2271 35.1573C79.2271 34.7215 79.1433 34.3192 78.9757 33.9505C78.8081 33.565 78.5818 33.2298 78.2969 32.9449C78.012 32.66 77.6768 32.4337 77.2913 32.2661C76.9226 32.0985 76.5203 32.0147 76.0845 32.0147C75.6488 32.0147 75.2381 32.0985 74.8526 32.2661C74.4839 32.4337 74.1571 32.66 73.8721 32.9449C73.5872 33.2298 73.361 33.565 73.1934 33.9505C73.0257 34.3192 72.9419 34.7215 72.9419 35.1573ZM89.2504 32.1655C89.2504 33.0036 89.3258 33.7662 89.4766 34.4533C89.6275 35.1405 89.837 35.7355 90.1052 36.2383C90.3901 36.7411 90.7253 37.135 91.1108 37.4199C91.4963 37.6881 91.9321 37.8222 92.4181 37.8222C92.8874 37.8222 93.3148 37.6881 93.7003 37.4199C94.1025 37.135 94.4377 36.7411 94.7059 36.2383C94.9741 35.7355 95.1836 35.1405 95.3344 34.4533C95.4853 33.7662 95.5607 33.0036 95.5607 32.1655C95.5607 31.3443 95.4853 30.59 95.3344 29.9029C95.1836 29.1989 94.9741 28.6039 94.7059 28.1179C94.4377 27.6151 94.1025 27.2296 93.7003 26.9614C93.3148 26.6765 92.8874 26.534 92.4181 26.534C91.9321 26.534 91.4963 26.6765 91.1108 26.9614C90.7253 27.2296 90.3901 27.6151 90.1052 28.1179C89.837 28.6039 89.6275 29.1989 89.4766 29.9029C89.3258 30.59 89.2504 31.3443 89.2504 32.1655ZM84.3731 32.1655C84.3731 30.6571 84.5658 29.2911 84.9513 28.0676C85.3536 26.8273 85.9067 25.7714 86.6106 24.8999C87.3313 24.0283 88.1777 23.3579 89.1498 22.8886C90.1387 22.4026 91.2281 22.1595 92.4181 22.1595C93.5913 22.1595 94.6724 22.4026 95.6612 22.8886C96.6501 23.3579 97.4965 24.0283 98.2005 24.8999C98.9044 25.7714 99.4491 26.8273 99.8346 28.0676C100.237 29.2911 100.438 30.6571 100.438 32.1655C100.438 33.674 100.237 35.0483 99.8346 36.2886C99.4491 37.5121 98.9044 38.568 98.2005 39.4563C97.4965 40.3279 96.6501 41.0067 95.6612 41.4927C94.6724 41.962 93.5913 42.1967 92.4181 42.1967C91.2281 42.1967 90.1387 41.962 89.1498 41.4927C88.1777 41.0067 87.3313 40.3279 86.6106 39.4563C85.9067 38.568 85.3536 37.5121 84.9513 36.2886C84.5658 35.0483 84.3731 33.674 84.3731 32.1655ZM107.118 30.0286H114.232V22.7126H119.16V41.6687H114.232V33.85H107.118V41.6687H102.19V22.7126H107.118V30.0286ZM127.306 37.4954H128.437C129.292 37.4954 130.054 37.3613 130.725 37.0931C131.395 36.8249 131.957 36.4562 132.409 35.9869C132.879 35.5176 133.23 34.9645 133.465 34.3276C133.717 33.674 133.842 32.9617 133.842 32.1907C133.842 31.4365 133.717 30.7325 133.465 30.0789C133.214 29.4252 132.853 28.8637 132.384 28.3944C131.932 27.9251 131.37 27.5564 130.7 27.2882C130.029 27.0201 129.275 26.886 128.437 26.886H127.306V37.4954ZM122.378 22.7126H129.669C130.959 22.7126 132.166 22.9724 133.289 23.492C134.429 24.0116 135.418 24.7071 136.256 25.5787C137.111 26.4335 137.781 27.4391 138.267 28.5956C138.753 29.7353 138.996 30.9336 138.996 32.1907C138.996 33.4309 138.753 34.6293 138.267 35.7858C137.798 36.9255 137.136 37.9311 136.281 38.8027C135.443 39.6742 134.454 40.3698 133.314 40.8893C132.191 41.4089 130.976 41.6687 129.669 41.6687H122.378V22.7126Z" fill="#2F80ED"/>
</g>
<defs>
<clipPath id="clip0">
<rect width="148.473" height="64" fill="white"/>
</clipPath>
</defs>
</svg>
