<svg viewBox="0 0 32 32" fill="none" xmlns="http://www.w3.org/2000/svg"><path fill-rule="evenodd" clip-rule="evenodd" d="M.975 10.292a12.555 12.555 0 0 0-.677 2.268l-.028.14c-.153.765-.315 1.574-.253 2.432L0 16.562c.269 4.817 2.199 8.184 4.976 10.747 1.355 1.25 2.859 2.317 4.777 3.105.904.372 1.933.69 3.025.916 1.41.29 3.136.375 4.638.258 1.062-.082 1.95-.22 2.846-.477 2.294-.658 4.261-1.647 5.891-2.965.81-.655 1.523-1.41 2.23-2.21.331-.353.613-.739.895-1.134.2-.28.355-.576.514-.879.072-.137.145-.276.222-.415A15.515 15.515 0 0 0 32 16.686h-8.374a7.545 7.545 0 0 1-.459 1.786c-.551 1.447-1.547 2.563-2.49 3.619l-.216.242a17.968 17.968 0 0 0-2.667 3.901l-.012.024c-.367.73-.73 1.451-.984 2.265a45.448 45.448 0 0 0-.534 1.92l-.003.01c-.016.062-.026.126-.037.19-.026.158-.052.32-.162.448-.134-.245-.186-.513-.237-.778-.019-.1-.038-.2-.062-.297a14.166 14.166 0 0 0-.318-1.075l-.087-.267c-.198-.612-.394-1.214-.67-1.763a32.416 32.416 0 0 0-.975-1.811 25.74 25.74 0 0 0-1.094-1.692c-.434-.627-.963-1.175-1.495-1.728-.38-.394-.763-.79-1.113-1.218-.632-.772-1.093-1.727-1.373-2.806a7.518 7.518 0 0 1-.211-1.157c-.034-.371-.068-1.148-.047-1.334.02-.185.134-.93.258-1.35a7.4 7.4 0 0 1 1.811-3.125c1.056-1.096 2.456-2.002 4.26-2.309 2.117-.36 4.006.308 5.333 1.075a7.006 7.006 0 0 1 1.792 1.493c.894 1.022 1.546 2.299 1.762 3.946h8.39a17.912 17.912 0 0 0-.041-.503c-.015-.149-.025-.32-.035-.489-.01-.167-.02-.333-.033-.475-.437-2.48-1.274-4.114-2.22-5.882l-1.71-2.197-2.132-2.103A15.991 15.991 0 0 0 20.36.58c-2.123-.583-4.838-.78-7.264-.339-4.557.829-7.64 3.192-10.032 6.23-.86 1.11-1.512 2.405-2.09 3.822z" fill="url(#a)"/><circle cx="15.959" cy="15.791" r="4.678" fill="url(#b)"/><defs><linearGradient id="a" x1="29.721" y1=".544" x2="23.559" y2="21.632" gradientUnits="userSpaceOnUse"><stop stop-color="#6EE5F7"/><stop offset=".067" stop-color="#79E6F8"/><stop offset=".133" stop-color="#77E4F8"/><stop offset=".2" stop-color="#73DFF8"/><stop offset=".267" stop-color="#6DD9F8"/><stop offset=".333" stop-color="#66D1F8"/><stop offset=".4" stop-color="#5EC7F9"/><stop offset=".467" stop-color="#54BCF9"/><stop offset=".533" stop-color="#4BB1F9"/><stop offset=".6" stop-color="#41A6F9"/><stop offset=".667" stop-color="#399DFA"/><stop offset=".733" stop-color="#3294FA"/><stop offset=".8" stop-color="#2C8EFA"/><stop offset=".867" stop-color="#2889FA"/><stop offset=".933" stop-color="#2687FA"/><stop offset="1" stop-color="#2586FA"/></linearGradient><linearGradient id="b" x1="19.971" y1="11.274" x2="18.131" y2="17.499" gradientUnits="userSpaceOnUse"><stop stop-color="#6EE5F7"/><stop offset=".067" stop-color="#79E6F8"/><stop offset=".133" stop-color="#77E4F8"/><stop offset=".2" stop-color="#73DFF8"/><stop offset=".267" stop-color="#6DD9F8"/><stop offset=".333" stop-color="#66D1F8"/><stop offset=".4" stop-color="#5EC7F9"/><stop offset=".467" stop-color="#54BCF9"/><stop offset=".533" stop-color="#4BB1F9"/><stop offset=".6" stop-color="#41A6F9"/><stop offset=".667" stop-color="#399DFA"/><stop offset=".733" stop-color="#3294FA"/><stop offset=".8" stop-color="#2C8EFA"/><stop offset=".867" stop-color="#2889FA"/><stop offset=".933" stop-color="#2687FA"/><stop offset="1" stop-color="#2586FA"/></linearGradient></defs></svg>