<svg viewBox="0 0 95 120" fill="none" xmlns="http://www.w3.org/2000/svg"><path fill-rule="evenodd" clip-rule="evenodd" d="M69.634 44.778H94.27C93.027 19.838 72.413 0 47.165 0 21.116 0 0 21.116 0 47.165 0 73.213 21.116 94.33 47.165 94.33c25.07 0 45.57-19.559 47.076-44.249H69.694c-.235 1.854-.733 3.581-1.345 5.187-1.634 4.288-4.585 7.593-7.379 10.722l-.64.717c-3.092 3.478-5.74 7.256-7.901 11.557l-.036.07c-1.088 2.163-2.163 4.3-2.913 6.712-.576 1.852-1.081 3.777-1.584 5.69l-.008.03c-.047.18-.078.37-.11.56-.075.468-.153.946-.48 1.327-.397-.727-.55-1.52-.701-2.305-.057-.296-.114-.59-.183-.88-.26-1.073-.605-2.152-.943-3.184l-.258-.792c-.588-1.814-1.166-3.597-1.983-5.223a95.892 95.892 0 0 0-2.89-5.366c-1.02-1.746-2.105-3.368-3.242-5.012-1.285-1.856-2.853-3.482-4.43-5.118-1.127-1.168-2.258-2.342-3.295-3.608-1.873-2.29-3.238-5.118-4.068-8.315-.657-2.875-.797-4.485-.827-7.37.27-.76.381-1.526.49-2.27.087-.6.172-1.184.336-1.74 1.12-3.797 2.957-6.756 5.366-9.258 3.127-3.246 7.275-5.93 12.619-6.84 6.274-1.067 11.869.913 15.802 3.185 2.064 1.19 3.777 2.672 5.307 4.422 2.668 3.05 4.609 6.867 5.236 11.799z" fill="#E8F5FF"/><circle cx="47.165" cy="47.165" fill="#E8F5FF" r="13.732"/><path d="M14.888 108.909c-.848-1.034-1.895-1.552-3.142-1.552-.549 0-1.06.1-1.534.299-.46.2-.86.474-1.196.823a3.764 3.764 0 0 0-.805 1.216 4.14 4.14 0 0 0-.28 1.533c0 .561.093 1.079.28 1.552.2.474.468.886.805 1.235.349.349.754.623 1.215.823.462.199.96.299 1.496.299 1.172 0 2.226-.499 3.16-1.496v4.338l-.373.131c-.561.2-1.085.343-1.571.43-.486.1-.966.15-1.44.15a7.45 7.45 0 0 1-2.805-.542 7.678 7.678 0 0 1-2.357-1.552 7.964 7.964 0 0 1-1.627-2.376c-.411-.922-.617-1.926-.617-3.01 0-1.085.2-2.076.599-2.974a7.496 7.496 0 0 1 1.627-2.338 7.343 7.343 0 0 1 2.375-1.533 7.27 7.27 0 0 1 2.824-.561c.56 0 1.11.062 1.645.187a9.383 9.383 0 0 1 1.72.542v4.376zM22.537 109.695c.1.012.18.018.243.018h.187c.46 0 .835-.137 1.122-.411.287-.274.43-.63.43-1.066 0-.424-.137-.767-.412-1.029-.261-.261-.604-.392-1.028-.392-.449 0-.81.149-1.085.449-.274.299-.411.685-.411 1.159h-3.385c.087-.736.268-1.39.542-1.964a4.724 4.724 0 0 1 1.085-1.44 4.285 4.285 0 0 1 1.533-.897 5.682 5.682 0 0 1 1.945-.318c.698 0 1.328.1 1.89.299.573.187 1.059.461 1.458.823.411.349.723.779.935 1.29.224.499.337 1.06.337 1.683 0 .674-.131 1.228-.393 1.665-.25.424-.611.792-1.085 1.103.723.225 1.284.63 1.683 1.216.412.573.617 1.284.617 2.132a4.36 4.36 0 0 1-.411 1.907 4.305 4.305 0 0 1-1.16 1.478 5.18 5.18 0 0 1-1.758.953 6.987 6.987 0 0 1-2.225.337c-1.085 0-2.063-.212-2.936-.636-.873-.424-1.571-1.097-2.095-2.019a4.238 4.238 0 0 1-.486-1.235 6.986 6.986 0 0 1-.112-1.253h3.628c.025.661.218 1.166.58 1.515.361.337.848.505 1.459.505.648 0 1.122-.175 1.42-.524.3-.349.45-.779.45-1.29 0-.611-.181-1.072-.543-1.384a1.91 1.91 0 0 0-1.29-.467c-.125 0-.243.012-.355.037a5.186 5.186 0 0 0-.375.056v-2.3zM40.951 104.197l-4.002 4.6h.075c.35-.212.636-.337.86-.374.225-.05.424-.075.599-.075a4.491 4.491 0 0 1 3.385 1.478c.424.449.754.978.991 1.589s.355 1.266.355 1.964c0 .748-.137 1.446-.411 2.094a4.968 4.968 0 0 1-1.197 1.684c-.511.473-1.135.847-1.87 1.122-.736.274-1.565.411-2.487.411-.936 0-1.77-.137-2.506-.411a5.825 5.825 0 0 1-1.89-1.122 4.941 4.941 0 0 1-1.177-1.646 5.045 5.045 0 0 1-.412-2.02c0-.798.175-1.658.524-2.581.361-.935.91-1.851 1.646-2.749l3.272-3.964h4.245zm-6.059 9.257c0 .324.063.629.187.916a2.469 2.469 0 0 0 1.234 1.234c.287.125.593.187.917.187.324 0 .623-.062.898-.187.286-.124.536-.293.748-.505.212-.212.38-.455.505-.729.124-.287.187-.592.187-.916 0-.324-.063-.624-.188-.898a2.396 2.396 0 0 0-.504-.748 2.404 2.404 0 0 0-.748-.505 2.138 2.138 0 0 0-.898-.187c-.324 0-.63.062-.916.187a2.47 2.47 0 0 0-.73.505c-.212.212-.38.461-.505.748a2.146 2.146 0 0 0-.187.898zM48.8 111.228c0 .624.056 1.191.169 1.702.112.511.267.954.467 1.328.212.374.461.667.748.879.287.199.61.299.973.299.349 0 .667-.1.953-.299.3-.212.549-.505.748-.879.2-.374.356-.817.468-1.328a7.95 7.95 0 0 0 .168-1.702c0-.611-.056-1.172-.168-1.683-.112-.523-.268-.966-.468-1.328-.2-.374-.448-.66-.748-.86a1.567 1.567 0 0 0-.953-.318c-.362 0-.686.106-.973.318-.287.2-.536.486-.748.86-.2.362-.355.805-.468 1.328a7.847 7.847 0 0 0-.168 1.683zm-3.628 0c0-1.122.144-2.138.43-3.048.3-.923.71-1.708 1.235-2.356a5.59 5.59 0 0 1 1.888-1.497 5.443 5.443 0 0 1 2.431-.542c.873 0 1.677.181 2.413.542.736.35 1.365.848 1.889 1.497.523.648.929 1.433 1.215 2.356.3.91.45 1.926.45 3.048s-.15 2.145-.45 3.067c-.286.91-.692 1.696-1.215 2.357a5.545 5.545 0 0 1-1.889 1.514c-.736.35-1.54.524-2.413.524-.885 0-1.695-.174-2.43-.524a5.793 5.793 0 0 1-1.89-1.514c-.523-.661-.935-1.447-1.234-2.357-.286-.922-.43-1.945-.43-3.067zM63.867 109.639h5.293v-5.442h3.666v14.1H69.16v-5.816h-5.292v5.816h-3.666v-14.1h3.666v5.442zM80.662 115.193h.841c.636 0 1.203-.1 1.702-.299.499-.2.916-.474 1.253-.823.349-.349.61-.761.785-1.234a4.4 4.4 0 0 0 .28-1.59c0-.561-.093-1.085-.28-1.571a3.55 3.55 0 0 0-.804-1.253 3.546 3.546 0 0 0-1.253-.823 4.508 4.508 0 0 0-1.683-.299h-.841v7.892zm-3.666-10.996h5.423c.96 0 1.858.193 2.693.579a7.132 7.132 0 0 1 2.207 1.553 6.921 6.921 0 0 1 1.496 2.244c.362.847.543 1.739.543 2.674 0 .923-.181 1.814-.543 2.674a6.95 6.95 0 0 1-1.477 2.244 7.132 7.132 0 0 1-2.207 1.553 6.386 6.386 0 0 1-2.712.579h-5.423v-14.1z" fill="#E8F5FF"/></svg>