<svg viewBox="0 0 95 120" fill="none" xmlns="http://www.w3.org/2000/svg"><path fill-rule="evenodd" clip-rule="evenodd" d="M69.632 44.776H94.27C93.026 19.837 72.412 0 47.166 0 21.116 0 0 21.116 0 47.165 0 73.213 21.116 94.33 47.165 94.33c25.07 0 45.571-19.56 47.076-44.25H69.693c-.235 1.854-.733 3.581-1.345 5.188-1.635 4.288-4.585 7.593-7.38 10.722l-.639.717c-3.092 3.478-5.74 7.256-7.902 11.557l-.035.07c-1.088 2.162-2.164 4.3-2.914 6.712-.575 1.852-1.08 3.776-1.583 5.69l-.008.03c-.048.18-.078.37-.11.56-.076.467-.153.946-.48 1.326-.398-.726-.55-1.52-.701-2.304-.057-.296-.114-.59-.184-.88-.259-1.073-.604-2.152-.942-3.184l-.258-.792c-.588-1.814-1.166-3.597-1.984-5.223a95.893 95.893 0 0 0-2.889-5.366c-1.02-1.746-2.105-3.368-3.243-5.012-1.284-1.856-2.852-3.482-4.43-5.118-1.126-1.169-2.258-2.342-3.294-3.609-1.873-2.289-3.238-5.117-4.068-8.314-.657-2.876-.797-4.485-.827-7.37.27-.76.381-1.526.49-2.27.087-.6.172-1.185.336-1.74 1.12-3.797 2.956-6.757 5.366-9.258 3.126-3.246 7.275-5.93 12.618-6.84 6.274-1.067 11.87.913 15.803 3.184 2.064 1.19 3.777 2.673 5.307 4.423 2.667 3.05 4.608 6.866 5.235 11.797Z" fill="#E8F5FF"/><circle cx="47.164" cy="47.165" fill="#E8F5FF" r="13.732"/><path d="M9.412 104.198v10.996h4.395v3.105h-8.06v-14.101h3.665Zm9.483 7.331-5.143-7.331h4.376l2.618 3.853 2.6-3.853h4.376l-5.162 7.331v6.77h-3.665v-6.77Zm11.326 6.77v-14.101h3.666l6.77 8.621v-8.621h3.646v14.101h-3.646l-6.77-8.621v8.621H30.22Zm28.593-9.388c-.848-1.035-1.895-1.552-3.142-1.552-.549 0-1.06.099-1.534.299-.461.199-.86.474-1.197.823a3.747 3.747 0 0 0-.804 1.215c-.187.474-.28.985-.28 1.534 0 .561.093 1.078.28 1.552.2.474.468.885.804 1.234.35.349.755.624 1.216.823.461.2.96.299 1.496.299 1.172 0 2.226-.498 3.16-1.496v4.339l-.373.131c-.561.199-1.085.343-1.571.43-.486.1-.966.15-1.44.15a7.432 7.432 0 0 1-2.806-.543 7.66 7.66 0 0 1-2.356-1.552 7.957 7.957 0 0 1-1.627-2.375c-.411-.923-.617-1.926-.617-3.011 0-1.085.2-2.076.598-2.973a7.472 7.472 0 0 1 1.627-2.338 7.346 7.346 0 0 1 2.376-1.534 7.27 7.27 0 0 1 2.823-.561c.561 0 1.11.063 1.646.187a9.393 9.393 0 0 1 1.72.543v4.376Zm7.574 1.87-4.395-6.583h4.526l1.907 3.647 2.356-3.647h4.526l-4.657 6.583 5.255 7.518h-4.47l-2.823-4.601-3.31 4.601H60.87l5.517-7.518Zm19.948-2.974a4.306 4.306 0 0 0-1.197-.71 3.073 3.073 0 0 0-1.159-.243c-.474 0-.86.112-1.16.336a1.05 1.05 0 0 0-.448.879c0 .25.075.455.224.617.15.162.343.306.58.43.25.113.523.212.823.3.311.087.617.18.916.28 1.197.399 2.07.935 2.618 1.609.561.66.842 1.527.842 2.599 0 .723-.125 1.378-.374 1.964a4.028 4.028 0 0 1-1.066 1.514c-.461.412-1.035.73-1.72.954-.674.237-1.44.356-2.3.356-1.784 0-3.436-.53-4.957-1.59l1.571-2.955c.549.486 1.091.848 1.627 1.085a3.908 3.908 0 0 0 1.59.355c.598 0 1.04-.137 1.328-.411.299-.275.448-.586.448-.935 0-.212-.037-.393-.112-.543a1.104 1.104 0 0 0-.374-.43 2.733 2.733 0 0 0-.692-.374c-.274-.112-.61-.237-1.01-.374a26.538 26.538 0 0 1-1.402-.486 4.777 4.777 0 0 1-1.216-.729c-.349-.3-.636-.674-.86-1.123-.212-.461-.318-1.041-.318-1.739 0-.698.112-1.328.337-1.889a4.278 4.278 0 0 1 .972-1.458c.424-.412.935-.73 1.534-.954a5.885 5.885 0 0 1 2.038-.337 8.6 8.6 0 0 1 2.188.3c.76.187 1.49.467 2.188.841l-1.459 2.861Z" fill="#E8F5FF"/></svg>