<svg viewBox="0 0 65 65" fill="none" xmlns="http://www.w3.org/2000/svg"><path fill-rule="evenodd" clip-rule="evenodd" d="M47.545 30.4H64.27C63.426 13.467 49.431 0 32.29 0 14.607 0 .27 14.336.27 32.02c0 17.684 14.336 32.02 32.02 32.02 17.02 0 30.938-13.278 31.96-30.04H47.586c-.16 1.258-.497 2.43-.913 3.519-1.11 2.911-3.113 5.155-5.01 7.28l-.434.486c-2.099 2.361-3.896 4.926-5.364 7.846l-.024.048c-.739 1.468-1.47 2.92-1.978 4.556-.39 1.258-.734 2.564-1.075 3.863l-.006.02c-.032.123-.053.251-.074.381-.052.317-.105.642-.326.9-.27-.493-.374-1.031-.476-1.564-.039-.2-.078-.4-.125-.597a28.427 28.427 0 0 0-.64-2.162l-.175-.538c-.399-1.231-.791-2.442-1.346-3.545a65.1 65.1 0 0 0-1.962-3.644c-.692-1.185-1.429-2.286-2.201-3.402-.872-1.26-1.937-2.364-3.008-3.475-.765-.793-1.533-1.59-2.237-2.45-1.271-1.554-2.198-3.474-2.761-5.644-.446-1.953-.541-3.045-.562-5.004.183-.515.26-1.036.333-1.541.059-.407.117-.804.228-1.181.76-2.578 2.007-4.587 3.643-6.286 2.123-2.203 4.939-4.025 8.567-4.643 4.26-.724 8.058.62 10.728 2.162 1.401.808 2.564 1.814 3.603 3.002 1.811 2.071 3.13 4.663 3.555 8.012z" fill="#E8F5FF"/><circle cx="32.291" cy="32.022" fill="#E8F5FF" r="9.322"/></svg>