<svg viewBox="0 0 14 14" fill="none" xmlns="http://www.w3.org/2000/svg"><g clip-path="url(#a)"><path fill-rule="evenodd" clip-rule="evenodd" d="M10.467 8.247a4.572 4.572 0 1 0-.806.806.581.581 0 0 0 .024.026l2.424 2.424a.571.571 0 1 0 .809-.808l-2.425-2.424a.564.564 0 0 0-.026-.024zM9.281 3.018a3.429 3.429 0 1 1-4.849 4.849 3.429 3.429 0 0 1 4.849-4.849z" fill="#001737"/></g><defs><clipPath id="a"><path fill="#fff" transform="matrix(-1 0 0 1 13.714 0)" d="M0 0h13.714v13.714H0z"/></clipPath></defs></svg>