<svg viewBox="0 0 12 17" fill="none" xmlns="http://www.w3.org/2000/svg"><path d="M1.09 15.271h9.818c.003 0 .001-8.729.001-8.729l-3.273.002v-1.09H10.9c.617 0 1.101.485 1.101 1.085v8.737c0 .59-.486 1.086-1.086 1.086H1.086c-.6 0-1.086-.486-1.086-1.086V6.54a1.1 1.1 0 0 1 1.101-1.086h3.263v1.091H1.1c-.003 0-.01 8.727-.01 8.727zM5.984 1.465l-2.77 2.806a.507.507 0 0 1-.725 0 .523.523 0 0 1 0-.733L5.622.366a.507.507 0 0 1 .724 0L9.48 3.538c.2.202.2.53 0 .733a.507.507 0 0 1-.723 0L5.984 1.465z" fill="#81A7FF"/><path d="M5.454 1.09h1.091v9.818h-1.09V1.09z" fill="#81A7FF"/></svg>