<svg viewBox="0 0 16 16" fill="none" xmlns="http://www.w3.org/2000/svg"><rect x=".667" y="4.667" width="10.667" height="10.667" rx=".667" stroke="#81A7FF" stroke-width="1.333"/><mask id="a" fill="#fff"><path d="M4 2.133v.534h1.333V1.333h9.334v9.334h-1.334V12h.534c.746 0 1.12 0 1.405-.145.25-.128.455-.332.583-.583.145-.285.145-.659.145-1.405V2.133c0-.746 0-1.12-.145-1.405a1.334 1.334 0 0 0-.583-.583C14.987 0 14.613 0 13.867 0H6.133c-.746 0-1.12 0-1.405.145-.25.128-.455.332-.583.583C4 1.013 4 1.387 4 2.133z"/></mask><path d="M4 2.667H2.667V4H4V2.667zM13.333 12H12v1.333h1.333V12zm0-1.333V9.333H12v1.334h1.333zm1.334 0V12H16v-1.333h-1.333zm0-9.334H16V0h-1.333v1.333zm-9.334 0V0H4v1.333h1.333zm0 1.334V4h1.334V2.667H5.333zm10.522 8.605-1.188-.605 1.188.605zm-.583.583-.605-1.188.605 1.188zm0-11.71.605-1.188-.605 1.188zm.583.583-1.188.605 1.188-.605zm-11.71 0 1.188.605L4.145.728zm.583-.583.605 1.188L4.728.145zm.605 2.522v-.534H2.667v.534h2.666zm.8-1.334h7.734v-2.666H6.133v2.666zm8.534.8v7.734h2.666V2.133h-2.666zm-.8 8.534h-.534v2.666h.534v-2.666zm.8 1.333v-1.333H12V12h2.667zm-1.334 0h1.334V9.333h-1.334V12zM16 10.667V1.333h-2.667v9.334H16zM14.667 0H5.333v2.667h9.334V0zM4 1.333v1.334h2.667V1.333H4zm1.333 0H4V4h1.333V1.333zm9.334 8.534c0 .395-.001.611-.014.767-.011.14-.025.11.014.033l2.376 1.21c.184-.362.243-.721.268-1.026.023-.29.022-.633.022-.984h-2.666zm-.8 3.466c.351 0 .695.001.984-.022a2.695 2.695 0 0 0 1.026-.268l-1.21-2.376c.076-.04.107-.025-.033-.014-.156.013-.372.014-.767.014v2.666zm.8-2.666 1.21 2.376c.502-.256.91-.664 1.166-1.166l-2.376-1.21zm-.8-9.334c.395 0 .611.001.767.014.14.012.11.025.033-.014l1.21-2.376a2.695 2.695 0 0 0-1.026-.268c-.29-.023-.633-.022-.984-.022v2.666zm3.466.8c0-.351.001-.695-.022-.984a2.695 2.695 0 0 0-.268-1.026l-2.376 1.21c-.04-.076-.025-.107-.014.033.013.156.014.372.014.767h2.666zm-2.666-.8 2.376-1.21a2.667 2.667 0 0 0-1.166-1.166l-1.21 2.376zm-9.334.8c0-.395.001-.611.014-.767.011-.14.025-.11-.014-.033L2.957.123a2.695 2.695 0 0 0-.268 1.026c-.023.29-.022.633-.022.984h2.666zm.8-3.466c-.351 0-.695-.001-.984.022a2.695 2.695 0 0 0-1.026.268l1.21 2.376c-.076.04-.107.026.033.014.156-.013.372-.014.767-.014v-2.666zm-.8 2.666-1.21-2.376c-.502.256-.91.664-1.166 1.166l2.376 1.21z" fill="#81A7FF" mask="url(#a)"/></svg>