<svg width="14" height="14" viewBox="0 0 14 14" fill="none" xmlns="http://www.w3.org/2000/svg">
<path d="M5.14258 3.99777H6.28543V6.85491H9.14258V7.99777H5.14258V3.99777Z" fill="#001737"/>
<path fill-rule="evenodd" clip-rule="evenodd" d="M12.5711 6.85491C12.5711 10.0108 10.0128 12.5692 6.85686 12.5692C3.70095 12.5692 1.14258 10.0108 1.14258 6.85491C1.14258 3.699 3.70095 1.14062 6.85686 1.14062C10.0128 1.14062 12.5711 3.699 12.5711 6.85491ZM11.4283 6.85491C11.4283 9.37964 9.38159 11.4263 6.85686 11.4263C4.33213 11.4263 2.28544 9.37964 2.28544 6.85491C2.28544 4.33018 4.33213 2.28348 6.85686 2.28348C9.38159 2.28348 11.4283 4.33018 11.4283 6.85491Z" fill="#001737"/>
</svg>
