<svg width="14" height="14" viewBox="0 0 14 14" fill="none" xmlns="http://www.w3.org/2000/svg">
<g clip-path="url(#clip0)">
<path fill-rule="evenodd" clip-rule="evenodd" d="M10.4675 8.24679C11.8639 6.45337 11.7377 3.85871 10.0891 2.21003C8.30382 0.42478 5.40935 0.42478 3.6241 2.21003C1.83884 3.99529 1.83884 6.88976 3.6241 8.67501C5.27277 10.3237 7.86744 10.4498 9.66086 9.0534C9.66859 9.06214 9.67665 9.0707 9.68501 9.07907L12.1094 11.5034C12.3325 11.7266 12.6943 11.7266 12.9175 11.5034C13.1407 11.2803 13.1407 10.9185 12.9175 10.6953L10.4931 8.27095C10.4848 8.26258 10.4762 8.25453 10.4675 8.24679ZM9.28095 3.01816C10.6199 4.3571 10.6199 6.52795 9.28095 7.86689C7.94201 9.20583 5.77116 9.20583 4.43222 7.86689C3.09328 6.52795 3.09328 4.3571 4.43222 3.01816C5.77116 1.67922 7.94201 1.67922 9.28095 3.01816Z" fill="#001737"/>
</g>
<defs>
<clipPath id="clip0">
<rect width="13.7143" height="13.7143" fill="white" transform="matrix(-1 0 0 1 13.7139 0)"/>
</clipPath>
</defs>
</svg>
